Anton-Regular.ufo
<glyph name="J" format="1">
  <advance width="955"/>
  <unicode hex="004A"/>
  <outline>
    <contour>
      <point x="468" y="-16" type="curve" smooth="yes"/>
      <point x="719" y="-16"/>
      <point x="898" y="160"/>
      <point x="898" y="440" type="curve" smooth="yes"/>
      <point x="898" y="1760" type="line"/>
      <point x="543" y="1760" type="line"/>
      <point x="543" y="405" type="line" smooth="yes"/>
      <point x="543" y="344"/>
      <point x="517" y="308"/>
      <point x="464" y="308" type="curve" smooth="yes"/>
      <point x="409" y="308"/>
      <point x="386" y="348"/>
      <point x="386" y="410" type="curve" smooth="yes"/>
      <point x="386" y="830" type="line"/>
      <point x="38" y="830" type="line"/>
      <point x="38" y="389" type="line" smooth="yes"/>
      <point x="38" y="124"/>
      <point x="229" y="-16"/>
    </contour>
    <contour>
      <point x="729" y="1760" type="move" name="top"/>
    </contour>
  </outline>
</glyph>
<glyph name="L" format="1">
  <advance width="814"/>
  <unicode hex="004C"/>
  <outline>
    <contour>
      <point x="78" y="0" type="line"/>
      <point x="792" y="0" type="line"/>
      <point x="792" y="300" type="line"/>
      <point x="430" y="300" type="line"/>
      <point x="430" y="1760" type="line"/>
      <point x="78" y="1760" type="line"/>
    </contour>
    <contour>
      <point x="193" y="1500" type="move" name="caron.alt"/>
    </contour>
    <contour>
      <point x="716" y="1011" type="move" name="mid"/>
    </contour>
    <contour>
      <point x="501" y="1760" type="move" name="top"/>
    </contour>
    <contour>
      <point x="433" y="0" type="move" name="bot"/>
    </contour>
  </outline>
</glyph>
<glyph name="N" format="1">
  <advance width="1020"/>
  <unicode hex="004E"/>
  <outline>
    <contour>
      <point x="78" y="0" type="line"/>
      <point x="422" y="0" type="line"/>
      <point x="422" y="880" type="line"/>
      <point x="598" y="0" type="line"/>
      <point x="942" y="0" type="line"/>
      <point x="942" y="1760" type="line"/>
      <point x="602" y="1760" type="line"/>
      <point x="602" y="917" type="line"/>
      <point x="440" y="1760" type="line"/>
      <point x="78" y="1760" type="line"/>
    </contour>
    <contour>
      <point x="503" y="0" type="move" name="bot"/>
    </contour>
    <contour>
      <point x="531" y="1760" type="move" name="top"/>
    </contour>
  </outline>
</glyph>
<glyph name="O" format="1">
  <advance width="996"/>
  <unicode hex="004F"/>
  <outline>
    <contour>
      <point x="498" y="308" type="curve" smooth="yes"/>
      <point x="426" y="308"/>
      <point x="412" y="369"/>
      <point x="412" y="461" type="curve" smooth="yes"/>
      <point x="412" y="1319" type="line" smooth="yes"/>
      <point x="412" y="1394"/>
      <point x="432" y="1452"/>
      <point x="500" y="1452" type="curve" smooth="yes"/>
      <point x="569" y="1452"/>
      <point x="578" y="1384"/>
      <point x="578" y="1322" type="curve" smooth="yes"/>
      <point x="578" y="463" type="line" smooth="yes"/>
      <point x="578" y="378"/>
      <point x="565" y="308"/>
    </contour>
    <contour>
      <point x="498" y="-16" type="curve" smooth="yes"/>
      <point x="786" y="-16"/>
      <point x="932" y="167"/>
      <point x="932" y="480" type="curve" smooth="yes"/>
      <point x="932" y="1316" type="line" smooth="yes"/>
      <point x="932" y="1619"/>
      <point x="780" y="1776"/>
      <point x="498" y="1776" type="curve" smooth="yes"/>
      <point x="216" y="1776"/>
      <point x="64" y="1619"/>
      <point x="64" y="1316" type="curve" smooth="yes"/>
      <point x="64" y="480" type="line" smooth="yes"/>
      <point x="64" y="167"/>
      <point x="210" y="-16"/>
    </contour>
    <contour>
      <point x="495" y="0" type="move" name="ogonek"/>
    </contour>
    <contour>
      <point x="499" y="1760" type="move" name="top"/>
    </contour>
  </outline>
</glyph>
<glyph name="U" format="1">
  <advance width="970"/>
  <unicode hex="0055"/>
  <outline>
    <contour>
      <point x="485" y="-16" type="curve" smooth="yes"/>
      <point x="778" y="-16"/>
      <point x="913" y="151"/>
      <point x="913" y="471" type="curve" smooth="yes"/>
      <point x="913" y="1760" type="line"/>
      <point x="571" y="1760" type="line"/>
      <point x="571" y="485" type="line" smooth="yes"/>
      <point x="571" y="396"/>
      <point x="566" y="308"/>
      <point x="485" y="308" type="curve" smooth="yes"/>
      <point x="405" y="308"/>
      <point x="399" y="397"/>
      <point x="399" y="485" type="curve" smooth="yes"/>
      <point x="399" y="1760" type="line"/>
      <point x="57" y="1760" type="line"/>
      <point x="57" y="471" type="line" smooth="yes"/>
      <point x="57" y="151"/>
      <point x="192" y="-16"/>
    </contour>
    <contour>
      <point x="507" y="0" type="move" name="ogonek"/>
    </contour>
    <contour>
      <point x="491" y="1760" type="move" name="top"/>
    </contour>
  </outline>
</glyph>
<glyph name="W" format="1">
  <advance width="1458"/>
  <unicode hex="0057"/>
  <outline>
    <contour>
      <point x="216" y="0" type="line"/>
      <point x="645" y="0" type="line"/>
      <point x="729" y="847" type="line"/>
      <point x="817" y="0" type="line"/>
      <point x="1239" y="0" type="line"/>
      <point x="1431" y="1760" type="line"/>
      <point x="1083" y="1760" type="line"/>
      <point x="989" y="649" type="line"/>
      <point x="895" y="1760" type="line"/>
      <point x="567" y="1760" type="line"/>
      <point x="468" y="649" type="line"/>
      <point x="371" y="1760" type="line"/>
      <point x="27" y="1760" type="line"/>
    </contour>
    <contour>
      <point x="743" y="1760" type="move" name="top"/>
    </contour>
  </outline>
</glyph>
<glyph name="Z" format="1">
  <advance width="840"/>
  <unicode hex="005A"/>
  <outline>
    <contour>
      <point x="32" y="0" type="line"/>
      <point x="789" y="0" type="line"/>
      <point x="789" y="324" type="line"/>
      <point x="396" y="324" type="line"/>
      <point x="806" y="1452" type="line"/>
      <point x="806" y="1760" type="line"/>
      <point x="71" y="1760" type="line"/>
      <point x="71" y="1436" type="line"/>
      <point x="435" y="1436" type="line"/>
      <point x="32" y="320" type="line"/>
    </contour>
    <contour>
      <point x="478" y="1760" type="move" name="top"/>
    </contour>
  </outline>
</glyph>
<glyph name="backslash" format="1">
  <advance width="830"/>
  <unicode hex="005C"/>
  <outline>
    <contour>
      <point x="438" y="0" type="line"/>
      <point x="801" y="0" type="line"/>
      <point x="391" y="1767" type="line"/>
      <point x="27" y="1767" type="line"/>
    </contour>
  </outline>
</glyph>
<glyph name="q" format="1">
  <advance width="1023"/>
  <unicode hex="0071"/>
  <outline>
    <contour>
      <point x="586" y="-300" type="line"/>
      <point x="951" y="-300" type="line"/>
      <point x="951" y="1500" type="line"/>
      <point x="586" y="1500" type="line"/>
      <point x="586" y="1419" type="line"/>
      <point x="533" y="1485"/>
      <point x="461" y="1516"/>
      <point x="371" y="1516" type="curve" smooth="yes"/>
      <point x="124" y="1516"/>
      <point x="60" y="1322"/>
      <point x="60" y="1075" type="curve" smooth="yes"/>
      <point x="60" y="482" type="line" smooth="yes"/>
      <point x="60" y="191"/>
      <point x="89" y="-16"/>
      <point x="381" y="-16" type="curve" smooth="yes"/>
      <point x="473" y="-16"/>
      <point x="543" y="32"/>
      <point x="586" y="90" type="curve"/>
    </contour>
    <contour>
      <point x="500" y="262" type="curve" smooth="yes"/>
      <point x="427" y="262"/>
      <point x="422" y="346"/>
      <point x="422" y="438" type="curve" smooth="yes"/>
      <point x="422" y="1075" type="line" smooth="yes"/>
      <point x="422" y="1152"/>
      <point x="425" y="1235"/>
      <point x="502" y="1235" type="curve" smooth="yes"/>
      <point x="558" y="1235"/>
      <point x="586" y="1183"/>
      <point x="586" y="1079" type="curve" smooth="yes"/>
      <point x="586" y="422" type="line" smooth="yes"/>
      <point x="586" y="335"/>
      <point x="576" y="262"/>
    </contour>
  </outline>
</glyph>
<glyph name="r" format="1">
  <advance width="704"/>
  <unicode hex="0072"/>
  <outline>
    <contour>
      <point x="72" y="0" type="line"/>
      <point x="430" y="0" type="line"/>
      <point x="430" y="1147" type="line" smooth="yes"/>
      <point x="430" y="1187"/>
      <point x="600" y="1219"/>
      <point x="688" y="1219" type="curve"/>
      <point x="688" y="1518" type="line"/>
      <point x="555" y="1518"/>
      <point x="464" y="1449"/>
      <point x="430" y="1333" type="curve"/>
      <point x="430" y="1500" type="line"/>
      <point x="72" y="1500" type="line"/>
    </contour>
    <contour>
      <point x="265" y="0" type="move" name="bot"/>
    </contour>
  </outline>
</glyph>
<glyph name="braceleft" format="1">
  <advance width="696"/>
  <unicode hex="007B"/>
  <outline>
    <contour>
      <point x="661" y="-188" type="curve"/>
      <point x="661" y="79" type="line"/>
      <point x="589" y="84"/>
      <point x="522" y="92"/>
      <point x="522" y="163" type="curve" smooth="yes"/>
      <point x="522" y="538" type="line" smooth="yes"/>
      <point x="522" y="731.741"/>
      <point x="418.386" y="791.24"/>
      <point x="304.27" y="817.5" type="curve"/>
      <point x="418.386" y="843.76"/>
      <point x="522" y="903.259"/>
      <point x="522" y="1097" type="curve" smooth="yes"/>
      <point x="522" y="1472" type="line" smooth="yes"/>
      <point x="522" y="1543"/>
      <point x="589" y="1551"/>
      <point x="661" y="1556" type="curve"/>
      <point x="661" y="1823" type="line"/>
      <point x="281" y="1815"/>
      <point x="170" y="1734"/>
      <point x="170" y="1455" type="curve" smooth="yes"/>
      <point x="170" y="1120" type="line" smooth="yes"/>
      <point x="170" y="987"/>
      <point x="153" y="930"/>
      <point x="31" y="916" type="curve"/>
      <point x="31" y="719" type="line"/>
      <point x="153" y="705"/>
      <point x="170" y="648"/>
      <point x="170" y="515" type="curve" smooth="yes"/>
      <point x="170" y="180" type="line" smooth="yes"/>
      <point x="170" y="-99"/>
      <point x="281" y="-180"/>
    </contour>
  </outline>
</glyph>
<glyph name="copyright" format="1">
  <advance width="1382"/>
  <unicode hex="00A9"/>
  <outline>
    <contour>
      <point x="685" y="424" type="curve" smooth="yes"/>
      <point x="847" y="424"/>
      <point x="928" y="497"/>
      <point x="928" y="643" type="curve" smooth="yes"/>
      <point x="928" y="806" type="line"/>
      <point x="735" y="806" type="line"/>
      <point x="735" y="657" type="line" smooth="yes"/>
      <point x="735" y="614"/>
      <point x="720" y="592"/>
      <point x="689" y="592" type="curve" smooth="yes"/>
      <point x="661" y="592"/>
      <point x="645" y="627"/>
      <point x="645" y="657" type="curve" smooth="yes"/>
      <point x="645" y="1066" type="line" smooth="yes"/>
      <point x="645" y="1104"/>
      <point x="652" y="1130"/>
      <point x="689" y="1130" type="curve" smooth="yes"/>
      <point x="720" y="1130"/>
      <point x="735" y="1104"/>
      <point x="735" y="1053" type="curve" smooth="yes"/>
      <point x="735" y="952" type="line"/>
      <point x="924" y="952" type="line"/>
      <point x="924" y="1105" type="line" smooth="yes"/>
      <point x="924" y="1239"/>
      <point x="823" y="1305"/>
      <point x="689" y="1305" type="curve" smooth="yes"/>
      <point x="524" y="1305"/>
      <point x="455" y="1217"/>
      <point x="455" y="1049" type="curve" smooth="yes"/>
      <point x="455" y="648" type="line" smooth="yes"/>
      <point x="455" y="507"/>
      <point x="546" y="424"/>
    </contour>
    <contour>
      <point x="691" y="334" type="curve" smooth="yes"/>
      <point x="402" y="334"/>
      <point x="193" y="571"/>
      <point x="193" y="862" type="curve" smooth="yes"/>
      <point x="193" y="1153"/>
      <point x="402" y="1390"/>
      <point x="691" y="1390" type="curve" smooth="yes"/>
      <point x="980" y="1390"/>
      <point x="1189" y="1153"/>
      <point x="1189" y="862" type="curve" smooth="yes"/>
      <point x="1189" y="571"/>
      <point x="980" y="334"/>
    </contour>
    <contour>
      <point x="691" y="205" type="curve" smooth="yes"/>
      <point x="1064" y="205"/>
      <point x="1348" y="489"/>
      <point x="1348" y="862" type="curve" smooth="yes"/>
      <point x="1348" y="1235"/>
      <point x="1064" y="1519"/>
      <point x="691" y="1519" type="curve" smooth="yes"/>
      <point x="318" y="1519"/>
      <point x="34" y="1235"/>
      <point x="34" y="862" type="curve" smooth="yes"/>
      <point x="34" y="489"/>
      <point x="318" y="205"/>
    </contour>
  </outline>
</glyph>
<glyph name="ae" format="1">
  <advance width="1497"/>
  <unicode hex="00E6"/>
  <outline>
    <contour>
      <point x="449" y="-18" type="curve" smooth="yes"/>
      <point x="598" y="-18"/>
      <point x="702" y="51"/>
      <point x="748" y="148" type="curve"/>
      <point x="789" y="53"/>
      <point x="896" y="-18"/>
      <point x="1036" y="-18" type="curve" smooth="yes"/>
      <point x="1358" y="-18"/>
      <point x="1446" y="172"/>
      <point x="1446" y="494" type="curve" smooth="yes"/>
      <point x="1446" y="579" type="line"/>
      <point x="1090" y="579" type="line"/>
      <point x="1091" y="574"/>
      <point x="1092" y="542"/>
      <point x="1092" y="483" type="curve" smooth="yes"/>
      <point x="1092" y="394"/>
      <point x="1094" y="260"/>
      <point x="1008" y="260" type="curve" smooth="yes"/>
      <point x="950" y="260"/>
      <point x="921" y="338"/>
      <point x="921" y="494" type="curve" smooth="yes"/>
      <point x="921" y="704" type="line"/>
      <point x="1442" y="704" type="line"/>
      <point x="1445" y="755"/>
      <point x="1446" y="848"/>
      <point x="1446" y="983" type="curve" smooth="yes"/>
      <point x="1446" y="1092" type="line" smooth="yes"/>
      <point x="1446" y="1376"/>
      <point x="1302" y="1518"/>
      <point x="1014" y="1518" type="curve" smooth="yes"/>
      <point x="889" y="1518"/>
      <point x="800" y="1477"/>
      <point x="747" y="1396" type="curve"/>
      <point x="692" y="1477"/>
      <point x="610" y="1518"/>
      <point x="501" y="1518" type="curve" smooth="yes"/>
      <point x="195" y="1518"/>
      <point x="60" y="1403"/>
      <point x="60" y="1105" type="curve" smooth="yes"/>
      <point x="60" y="1084"/>
      <point x="60" y="1067"/>
      <point x="61" y="1056" type="curve"/>
      <point x="409" y="1056" type="line"/>
      <point x="409" y="1157" type="line" smooth="yes"/>
      <point x="409" y="1212"/>
      <point x="434" y="1239"/>
      <point x="483" y="1239" type="curve" smooth="yes"/>
      <point x="578" y="1239"/>
      <point x="560" y="1079"/>
      <point x="560" y="983" type="curve" smooth="yes"/>
      <point x="560" y="980" type="line"/>
      <point x="224" y="865"/>
      <point x="38" y="839"/>
      <point x="38" y="430" type="curve" smooth="yes"/>
      <point x="38" y="154"/>
      <point x="182" y="-18"/>
    </contour>
    <contour>
      <point x="483" y="262" type="curve" smooth="yes"/>
      <point x="430" y="262"/>
      <point x="403" y="306"/>
      <point x="403" y="395" type="curve" smooth="yes"/>
      <point x="403" y="570" type="line" smooth="yes"/>
      <point x="403" y="687"/>
      <point x="460" y="734"/>
      <point x="559" y="774" type="curve"/>
      <point x="559" y="379" type="line" smooth="yes"/>
      <point x="559" y="322"/>
      <point x="541" y="262"/>
    </contour>
    <contour>
      <point x="921" y="931" type="line"/>
      <point x="921" y="1052" type="line" smooth="yes"/>
      <point x="921" y="1167"/>
      <point x="921" y="1249"/>
      <point x="1010" y="1249" type="curve" smooth="yes"/>
      <point x="1063" y="1249"/>
      <point x="1090" y="1195"/>
      <point x="1090" y="1087" type="curve" smooth="yes"/>
      <point x="1090" y="931" type="line"/>
    </contour>
    <contour>
      <point x="769" y="1500" type="move" name="top"/>
    </contour>
  </outline>
</glyph>
<glyph name="mu" format="1">
  <advance width="1003"/>
  <unicode hex="03BC"/>
  <outline>
    <contour>
      <point x="68" y="-186" type="line"/>
      <point x="427" y="-186" type="line"/>
      <point x="427" y="541" type="line"/>
      <point x="68" y="541" type="line"/>
    </contour>
    <component base="u"/>
  </outline>
</glyph>
<glyph name="dagger" format="1">
  <advance width="789"/>
  <unicode hex="2020"/>
  <outline>
    <contour>
      <point x="214" y="0" type="line"/>
      <point x="578" y="0" type="line"/>
      <point x="578" y="996" type="line"/>
      <point x="758" y="996" type="line"/>
      <point x="758" y="1292" type="line"/>
      <point x="578" y="1292" type="line"/>
      <point x="578" y="1592" type="line"/>
      <point x="214" y="1592" type="line"/>
      <point x="214" y="1292" type="line"/>
      <point x="31" y="1292" type="line"/>
      <point x="31" y="996" type="line"/>
      <point x="214" y="996" type="line"/>
    </contour>
  </outline>
</glyph>
<glyph name="foursuperior" format="1">
  <advance width="627"/>
  <unicode hex="2074"/>
  <outline>
    <contour>
      <point x="333" y="834" type="line"/>
      <point x="540" y="834" type="line"/>
      <point x="540" y="986" type="line"/>
      <point x="579" y="986" type="line"/>
      <point x="579" y="1157" type="line"/>
      <point x="540" y="1157" type="line"/>
      <point x="540" y="1776" type="line"/>
      <point x="217" y="1776" type="line"/>
      <point x="30" y="1135" type="line"/>
      <point x="30" y="986" type="line"/>
      <point x="333" y="986" type="line"/>
    </contour>
    <contour>
      <point x="223" y="1157" type="line"/>
      <point x="333" y="1562" type="line"/>
      <point x="333" y="1157" type="line"/>
    </contour>
  </outline>
</glyph>
<glyph name="estimated" format="1">
  <advance width="1000"/>
  <unicode hex="212E"/>
  <outline>
    <contour>
      <point x="492" y="-16" type="curve" smooth="yes"/>
      <point x="807" y="-16"/>
      <point x="942" y="137"/>
      <point x="942" y="494" type="curve" smooth="yes"/>
      <point x="942" y="579" type="line"/>
      <point x="656" y="579" type="line"/>
      <point x="656" y="245" type="line" smooth="yes"/>
      <point x="656" y="130"/>
      <point x="604" y="70"/>
      <point x="504" y="70" type="curve" smooth="yes"/>
      <point x="421" y="70"/>
      <point x="378" y="127"/>
      <point x="378" y="237" type="curve" smooth="yes"/>
      <point x="378" y="738" type="line"/>
      <point x="938" y="738" type="line"/>
      <point x="942" y="1092" type="line" smooth="yes"/>
      <point x="945" y="1371"/>
      <point x="797" y="1516"/>
      <point x="510" y="1516" type="curve" smooth="yes"/>
      <point x="214" y="1516"/>
      <point x="60" y="1371"/>
      <point x="60" y="1092" type="curve" smooth="yes"/>
      <point x="60" y="489" type="line" smooth="yes"/>
      <point x="60" y="157"/>
      <point x="208" y="-16"/>
    </contour>
    <contour>
      <point x="376" y="835" type="line"/>
      <point x="376" y="1277" type="line" smooth="yes"/>
      <point x="376" y="1383"/>
      <point x="421" y="1439"/>
      <point x="506" y="1439" type="curve" smooth="yes"/>
      <point x="605" y="1439"/>
      <point x="656" y="1383"/>
      <point x="656" y="1277" type="curve" smooth="yes"/>
      <point x="656" y="835" type="line"/>
    </contour>
  </outline>
</glyph>
<glyph name="summation" format="1">
  <advance width="849"/>
  <unicode hex="2211"/>
  <outline>
    <contour>
      <point x="43" y="0" type="line"/>
      <point x="807" y="0" type="line"/>
      <point x="807" y="301" type="line"/>
      <point x="415" y="301" type="line"/>
      <point x="628" y="891" type="line"/>
      <point x="415" y="1459" type="line"/>
      <point x="807" y="1459" type="line"/>
      <point x="807" y="1760" type="line"/>
      <point x="43" y="1760" type="line"/>
      <point x="43" y="1488" type="line"/>
      <point x="253" y="891" type="line"/>
      <point x="43" y="272" type="line"/>
    </contour>
  </outline>
</glyph>
<glyph name="minus" format="1">
  <advance width="637"/>
  <unicode hex="2212"/>
  <outline>
    <contour>
      <point x="60" y="509" type="line"/>
      <point x="576" y="509" type="line"/>
      <point x="576" y="741" type="line"/>
      <point x="60" y="741" type="line"/>
    </contour>
  </outline>
</glyph>
<glyph name="foundryicon" format="1">
  <advance width="1347"/>
  <outline>
    <contour>
      <point x="485" y="605" type="line"/>
      <point x="485" y="872" type="line"/>
      <point x="591" y="872" type="line"/>
      <point x="761" y="723" type="line"/>
      <point x="761" y="872" type="line"/>
      <point x="867" y="872" type="line"/>
      <point x="867" y="605" type="line"/>
      <point x="761" y="605" type="line"/>
      <point x="591" y="752" type="line"/>
      <point x="591" y="605" type="line"/>
    </contour>
    <contour>
      <point x="280" y="202" type="line"/>
      <point x="669" y="478" type="line"/>
      <point x="1066" y="202" type="line"/>
      <point x="922" y="661" type="line"/>
      <point x="1313" y="955" type="line"/>
      <point x="828" y="955" type="line"/>
      <point x="669" y="1415" type="line"/>
      <point x="519" y="955" type="line"/>
      <point x="34" y="955" type="line"/>
      <point x="423" y="661" type="line"/>
    </contour>
  </outline>
</glyph>
